<svg width="270" height="203" viewBox="0 0 270 203" version="1.1" xmlns="http://www.w3.org/2000/svg" xmlns:xlink="http://www.w3.org/1999/xlink">
<g id="Canvas" fill="none">
<g id="illustration">
<g id="boy-with-papers">
<g id="Stroke 1 Copy 2">
<path fill-rule="evenodd" clip-rule="evenodd" d="M 64.1249 75.9888C 64.1274 77.6675 63.0267 79.0307 61.6669 79.0338L 2.57156 79.1621C 1.21181 79.1652 0.107552 77.8064 0.105028 76.1276L 4.33411e-06 3.17331C -0.00252027 1.4946 1.09821 0.131424 2.45796 0.128324L 61.5533 3.3898e-06C 62.9131 -0.00247624 64.0173 1.35574 64.0199 3.03445L 64.1249 75.9888Z" transform="matrix(0.892738 -0.450576 0.453168 0.891425 -1 28.8931)" fill="#E0E3F9"/>
</g>
<g id="Fill 19 Copy">
<path fill-rule="evenodd" clip-rule="evenodd" d="M 84.3875 114.721L 92.7073 63.69C 92.7073 63.69 54.6736 66.0635 26.9404 43.5148C 13.0741 35.9984 0 10.2852 0 10.681C 0 10.681 10.697 7.51584 11.8856 0C 11.8856 0 30.5061 43.119 91.5188 28.4826C 144.212 16.219 166.931 25.2053 180.005 37.4688C 180.005 37.4688 186.515 59.9238 200.47 114.721L 84.3875 114.721Z" transform="translate(68.8945 88.2788)" fill="url(#paint0_linear)"/>
</g>
<g id="Fill 21">
<path fill-rule="evenodd" clip-rule="evenodd" d="M 16.6729 25.2562C 16.6729 25.2562 -3.1362 14.9711 0.429468 3.89432C 3.99514 -7.18243 27.7662 8.24562 28.5584 14.5753C 29.3506 20.9049 16.6729 25.2562 16.6729 25.2562Z" transform="translate(52.2217 73.7036)" fill="#FEB4A8"/>
</g>
<g id="boy face">
<g id="Page 1">
<g id="boy copy 4">
<g id="boy">
<g id="Fill 3">
<path fill-rule="evenodd" clip-rule="evenodd" d="M 4.00267 30.0896C 3.81311 28.1352 3.20172 26.6916 1.4833 25.7471C -0.81873 22.5242 -0.134119 19.1779 1.45767 16.0523C 3.99781 11.0648 8.09128 9.11198 13.6573 9.86863C 15.011 10.0527 16.3579 10.1171 17.7189 10.0885C 19.2309 10.0565 20.1313 9.33472 20.4372 7.85141C 20.5677 7.21861 20.6689 6.58562 20.7254 5.94198C 21.0421 2.34083 22.8746 0.483653 26.4965 0.0993288C 29.5321 -0.222876 32.4259 0.21989 35.128 1.70532C 40.5027 4.66013 46.0031 7.39181 51.1938 10.6735C 51.6838 10.9833 52.2183 11.1967 52.7283 11.4624C 53.5617 12.018 54.4023 12.2249 55.4448 11.9609C 56.365 11.7277 57.366 11.7628 58.3312 11.7643C 62.1361 11.7703 64.6394 13.5625 65.9299 17.1574C 66.7243 19.3709 66.8672 21.6739 66.8761 23.995C 66.8967 29.3691 65.832 34.5894 64.6207 39.7894C 64.3882 40.7879 64.1715 41.7904 63.9476 42.791C 63.6665 46.8249 62.1948 50.6602 62.0083 54.7265C 61.9369 56.2865 62.32 57.9651 61.4086 59.4397C 61.3746 62.8442 61.4529 66.2545 61.2822 69.6523C 60.958 76.101 57.695 80.6288 51.826 83.2863C 49.8619 84.1757 47.846 84.3727 45.5975 84.7719C 44.8412 84.9062 43.9871 85.0353 43.151 85.0713C 42.3992 85.2439 41.4371 85.2544 40.5328 85.2579C 36.5409 85.2731 32.8073 85.2826 28.8156 85.2579C 27.9232 85.2524 26.8124 85.2579 25.31 84.8717C 23.3068 84.7719 22.919 84.4586 21.3841 84.2676C 13.9799 83.3467 8.29696 77.1009 8.1074 69.6751C 8.0204 66.2634 8.02117 62.8494 7.98194 59.4364C 7.20274 58.1793 7.26295 56.7289 7.0464 55.3454C 6.50998 51.92 6.0326 48.4858 5.54939 45.0527C 5.4249 44.1685 5.22719 43.2686 5.68962 42.41C 5.10892 38.3049 4.40236 34.2121 4.00267 30.0896Z" transform="translate(234.145 21.5151) scale(-1 1)" fill="#272C87"/>
</g>
<g id="Fill 27">
<path fill-rule="evenodd" clip-rule="evenodd" d="M 55.5287 16.0116C 53.8161 15.9501 52.5811 14.7598 51.1804 14.0453C 46.5971 11.708 42.1517 9.10425 37.6073 6.68897C 34.4066 4.98796 31.002 4.57035 27.4916 5.63004C 25.0206 6.37586 23.9242 8.39694 24.0952 10.425C 24.1616 11.2113 23.938 11.9476 23.7444 12.6982C 23.2119 14.7605 22.6824 15.0961 20.5084 15.2447C 18.2926 15.3962 16.1525 14.8203 13.9546 14.8016C 10.4725 14.772 7.91916 16.3915 5.88883 19.0073C 3.21507 22.4519 2.85791 26.2564 4.28364 30.2963C 1.78817 28.6765 0.51898 26.2779 0.110157 23.4353C -0.766336 17.343 3.67381 10.8078 10.3651 10.3991C 11.6697 10.3195 12.9317 10.5564 14.2005 10.7656C 15.3504 10.9552 16.4982 11.1234 17.6645 10.9324C 19.3041 10.6638 20.0576 9.94334 20.2767 8.30657C 20.4128 7.29003 20.5459 6.27387 20.5818 5.23856C 20.6702 2.6971 21.8613 1.18052 24.3387 0.468955C 27.0393 -0.306853 29.7021 -0.129205 32.2716 1.07002C 35.0285 2.3569 37.6681 3.8702 40.2028 5.52903C 45.2263 8.81649 50.1625 12.2373 55.1311 15.6083C 55.2846 15.7123 55.397 15.8758 55.5287 16.0116Z" transform="translate(236.894 16.9663) scale(-1 1)" fill="#3339B1"/>
</g>
<g id="Fill 56">
<path fill-rule="evenodd" clip-rule="evenodd" d="M 1.49045 -3.9686e-07C 2.26615 5.10342 3.05078 10.2057 3.80492 15.3122C 3.88746 15.8705 3.79443 16.4545 3.78278 17.0266C 2.68158 17.0869 1.61747 17.1247 0.804096 16.1244C 0.342058 15.5558 -0.00461273 15.0233 4.84308e-05 14.2539C 0.0225774 10.4176 0.0140322 6.58092 0.00762311 2.74445C 0.00568096 1.55626 0.540157 0.670148 1.49045 -3.9686e-07Z" transform="translate(169.138 63.9253)" fill="#FED1BE"/>
</g>
<g id="Fill 58">
<path fill-rule="evenodd" clip-rule="evenodd" d="M 0.04753 16.6498C -0.21738 10.9312 0.624538 5.38015 2.58669 -5.76392e-07C 3.35132 4.28078 2.96095 8.60046 3.00853 12.9027C 3.03591 15.3693 2.30179 16.1944 0.04753 16.6498Z" transform="translate(226.299 64.3057)" fill="#FDD1BF"/>
</g>
<g id="Fill 66">
<path fill-rule="evenodd" clip-rule="evenodd" d="M 16.3665 34.9355C 13.7809 34.9649 12.7209 35.9296 12.4274 38.4437C 12.2592 39.8851 12.2594 39.8976 10.8801 39.9123C 9.52409 39.9271 8.16595 39.9559 6.81188 39.9019C 3.19501 39.7579 0.648454 37.4438 0.126792 33.8731C 0.0710527 33.4922 0.0176439 33.1069 0.0155075 32.7232C -0.0279967 25.0685 0.0110444 17.4143 0.248764 9.76207C 1.07243 9.10102 2.06176 9.15694 3.01652 9.18887C 8.54078 9.37349 14.0477 8.75946 19.5693 8.85834C 19.8901 8.86415 20.2133 8.87479 20.4827 8.65206C 24.749 8.29173 28.958 7.68854 32.9529 6.02042C 35.5299 4.94447 37.9393 3.57321 40.3268 2.14642C 41.3795 1.51749 42.4441 0.885462 43.5671 0.401477C 45.8025 -0.561849 47.3481 0.22673 47.9911 2.57002C 48.626 4.88429 48.236 7.17785 47.7876 9.45979C 47.3283 11.7975 46.7353 14.1034 47.1684 16.5353C 47.3865 17.7593 47.6545 18.9392 48.3203 19.9879C 48.8956 20.8937 49.1265 21.8416 49.1117 22.916C 49.069 26.0113 49.0502 29.1085 49.1065 32.2036C 49.2073 37.7345 45.2764 40.2255 41.2385 39.9183C 40.9168 39.8938 40.5913 39.9154 40.2678 39.9154C 37.9502 39.9152 37.9502 39.9152 37.6377 37.7126C 37.4025 36.0554 36.2718 35.0088 34.4335 34.9515C 32.2348 34.8832 30.0322 34.939 27.8314 34.9409C 26.343 35.0241 21.8761 34.9355 20.0408 35.0241C 18.8159 34.992 17.5908 34.9216 16.3665 34.9355Z" transform="translate(175.088 46.3584)" fill="#FFD2BE"/>
</g>
<g id="Fill 70">
<path fill-rule="evenodd" clip-rule="evenodd" d="M 16.1426 4.12094C 10.7819 4.70091 5.38908 4.6891 -9.67283e-07 4.5279C -9.67283e-07 2.99215 -9.67283e-07 1.45718 -9.67283e-07 3.73238e-07C 6.25004 2.17029 13.6139 3.25998 20.2339 3.41712C 18.9577 4.12655 17.4947 3.97464 16.1426 4.12094Z" transform="translate(175.337 51.5938)" fill="#EDA183"/>
</g>
<g id="Path 4">
<path d="M 0 2.08524C 2.35412 3.93879 4.94366 3.24371 7.76861 0" stroke-linecap="round" transform="translate(197.158 87.2139)" stroke="#FBCEBC"/>
</g>
<g id="Fill 76">
<path fill-rule="evenodd" clip-rule="evenodd" d="M 0.0591156 1.69814C -0.00245058 1.40838 -0.0129385 1.10002 0.0138632 0.805022C 0.0575616 0.320893 0.392391 0.0376423 0.894825 0.00259702C 1.31355 -0.0264868 1.65265 0.190472 1.79307 0.560434C 1.92048 0.895892 1.9296 1.27019 2.05604 1.60601C 2.45515 2.66603 3.36038 3.28168 4.51927 3.32106C 5.77293 3.36369 6.75507 2.75853 7.20002 1.6369C 7.31014 1.35925 7.31267 1.04619 7.40278 0.759685C 7.56534 0.242316 7.9126 -0.0994645 8.53389 0.0300583C 9.14606 0.157775 9.27948 0.615526 9.28356 1.13741C 9.29677 2.85842 7.57777 4.70697 5.60979 5.06338C 5.29458 5.12046 4.96965 5.1304 4.81933 5.14522C 2.42136 5.14756 0.485224 3.70059 0.0591156 1.69814Z" transform="translate(182.974 70.5684) scale(1 -1)" fill="#1E1F52"/>
</g>
<g id="Fill 78">
<path fill-rule="evenodd" clip-rule="evenodd" d="M 4.54477 5.14479C 2.30275 5.11473 0.405851 3.61856 0.0778211 1.61599C -0.0313278 0.949194 -0.173104 0.194948 0.792923 0.0240389C 1.67291 -0.131481 1.75914 0.594705 1.95433 1.17062C 2.48414 2.73414 3.21945 3.31621 4.60615 3.32218C 5.7998 3.32725 6.7128 2.76256 7.14182 1.7248C 7.2566 1.44725 7.29932 1.14418 7.37817 0.853601C 7.51626 0.345763 7.7806 -0.0639495 8.42325 0.0082885C 9.2007 0.0953721 9.24478 0.672912 9.23274 1.22764C 9.18748 3.33666 6.97557 5.17756 4.54477 5.14479Z" transform="translate(214.148 70.5767) scale(-1)" fill="#1D1F52"/>
</g>
<g id="Stroke 18">
<path d="M 1.10139 0.268487C 1.10139 0.268487 2.42305 -0.462469 3.37758 0.487774C 4.33211 1.43802 4.62582 3.63089 2.3132 4.28875L 0 4.94661" stroke-width="1.99353" stroke-linecap="round" transform="translate(199.402 81.0444) scale(-1)" stroke="#FFA0A3"/>
</g>
</g>
</g>
</g>
</g>
</g>
</g>
</g>
<defs>

<linearGradient id="paint0_linear" x2="1" gradientUnits="userSpaceOnUse" gradientTransform="matrix(181.698 116.087 -202.856 103.979 53.7556 13.8166)">
<stop stop-color="#8DC0FF"/>
<stop offset="0.833716" stop-color="#294FBA"/>
</linearGradient>

</defs>
</svg>

